<svg width="7" height="12" viewBox="0 0 7 12" fill="none" xmlns="http://www.w3.org/2000/svg">
<path d="M5.0932 1.88788H6.70158C6.84955 1.88788 6.96964 1.78216 6.96964 1.6519V0.235985C6.96964 0.105721 6.84955 0 6.70158 0H5.0932C3.46766 0 2.1445 1.16435 2.1445 2.59584V4.24773H0.268063C0.120092 4.24773 0 4.35346 0 4.48372V5.89963C0 6.0299 0.120092 6.13562 0.268063 6.13562H2.1445V11.0913C2.1445 11.2216 2.2646 11.3273 2.41257 11.3273H4.02095C4.16892 11.3273 4.28901 11.2216 4.28901 11.0913V6.13562H6.16545C6.28072 6.13562 6.38312 6.07048 6.42011 5.9742L6.95624 4.55829C6.98358 4.48655 6.96964 4.40726 6.91924 4.34543C6.86831 4.28408 6.78789 4.24773 6.70158 4.24773H4.28901V2.59584C4.28901 2.20552 4.64982 1.88788 5.0932 1.88788Z" fill="white"/>
</svg>
