<svg width="26" height="22" viewBox="0 0 26 22" fill="none" xmlns="http://www.w3.org/2000/svg">
<path d="M26.0008 14.0008C25.9985 16.1218 25.1549 18.1553 23.6551 19.6551C22.1553 21.1549 20.1218 21.9985 18.0008 22.0008H7.00079C6.73557 22.0008 6.48122 21.8954 6.29368 21.7079C6.10614 21.5204 6.00079 21.266 6.00079 21.0008C6.00079 20.7356 6.10614 20.4812 6.29368 20.2937C6.48122 20.1061 6.73557 20.0008 7.00079 20.0008H18.0008C19.5921 20.0008 21.1182 19.3686 22.2434 18.2434C23.3686 17.1182 24.0008 15.5921 24.0008 14.0008C24.0008 12.4095 23.3686 10.8834 22.2434 9.75815C21.1182 8.63293 19.5921 8.00079 18.0008 8.00079H8.00079V13.0008C8.00094 13.1987 7.94238 13.3922 7.83251 13.5568C7.72264 13.7214 7.5664 13.8497 7.38358 13.9254C7.20075 14.0012 6.99956 14.021 6.80548 13.9823C6.6114 13.9437 6.43314 13.8483 6.29329 13.7083L0.293287 7.70829C0.20031 7.61542 0.126551 7.50513 0.0762267 7.38373C0.0259024 7.26233 0 7.1322 0 7.00079C0 6.86937 0.0259024 6.73925 0.0762267 6.61785C0.126551 6.49645 0.20031 6.38616 0.293287 6.29329L6.29329 0.293288C6.43314 0.153276 6.6114 0.0579087 6.80548 0.0192583C6.99956 -0.0193921 7.20075 0.000412494 7.38358 0.076165C7.5664 0.151917 7.72264 0.280212 7.83251 0.444805C7.94238 0.609399 8.00094 0.802892 8.00079 1.00079V6.00079H18.0008C20.1218 6.0031 22.1553 6.8467 23.6551 8.34649C25.1549 9.84628 25.9985 11.8798 26.0008 14.0008Z" fill="#87956A"/>
</svg>
