<svg width="70" height="63" viewBox="0 0 70 63" fill="none" xmlns="http://www.w3.org/2000/svg">
<path d="M32.5 24.7474V47.4974C32.5 48.1605 32.7634 48.7964 33.2322 49.2652C33.7011 49.7341 34.337 49.9974 35 49.9974C35.663 49.9974 36.2989 49.7341 36.7678 49.2652C37.2366 48.7964 37.5 48.1605 37.5 47.4974V24.7474C40.5351 24.1279 43.2321 22.4035 45.068 19.9085C46.9039 17.4135 47.748 14.3256 47.4367 11.2436C47.1254 8.16163 45.6807 5.30502 43.3829 3.22761C41.085 1.1502 38.0977 0 35 0C31.9023 0 28.915 1.1502 26.6171 3.22761C24.3193 5.30502 22.8746 8.16163 22.5633 11.2436C22.252 14.3256 23.0961 17.4135 24.932 19.9085C26.7679 22.4035 29.4649 24.1279 32.5 24.7474ZM35 4.99745C36.4834 4.99745 37.9334 5.43732 39.1668 6.26143C40.4001 7.08554 41.3614 8.25688 41.9291 9.62732C42.4968 10.9978 42.6453 12.5058 42.3559 13.9606C42.0665 15.4155 41.3522 16.7519 40.3033 17.8008C39.2544 18.8496 37.918 19.5639 36.4632 19.8533C35.0083 20.1427 33.5003 19.9942 32.1299 19.4265C30.7594 18.8589 29.5881 17.8976 28.764 16.6642C27.9399 15.4309 27.5 13.9808 27.5 12.4974C27.5 10.5083 28.2902 8.60067 29.6967 7.19415C31.1032 5.78763 33.0109 4.99745 35 4.99745ZM70 47.4974C70 57.2412 51.9656 62.4974 35 62.4974C18.0344 62.4974 0 57.2412 0 47.4974C0 45.0787 1.19062 41.5193 6.875 38.3068C10.7063 36.1381 15.975 34.4725 22.1156 33.4881C22.4404 33.4368 22.7722 33.45 23.0919 33.5269C23.4116 33.6038 23.7131 33.7429 23.979 33.9363C24.245 34.1297 24.4702 34.3736 24.6419 34.6541C24.8136 34.9345 24.9284 35.2461 24.9797 35.5709C25.031 35.8957 25.0178 36.2274 24.9409 36.5472C24.864 36.8669 24.7249 37.1683 24.5314 37.4343C24.338 37.7002 24.0941 37.9255 23.8137 38.0972C23.5332 38.2689 23.2217 38.3837 22.8969 38.4349C17.4156 39.3162 12.5844 40.8193 9.32812 42.6693C6.57812 44.2162 5 45.9787 5 47.4974C5 51.6724 16.4125 57.4974 35 57.4974C53.5875 57.4974 65 51.6724 65 47.4974C65 45.9787 63.4219 44.2162 60.6719 42.6568C57.4031 40.8068 52.5844 39.3037 47.1031 38.4225C46.7714 38.3791 46.4518 38.2697 46.1631 38.1005C45.8745 37.9314 45.6227 37.7061 45.4228 37.4379C45.2228 37.1697 45.0787 36.8641 44.999 36.5392C44.9192 36.2143 44.9055 35.8767 44.9587 35.5465C45.0118 35.2162 45.1307 34.8999 45.3083 34.6164C45.4859 34.3329 45.7185 34.0879 45.9925 33.896C46.2665 33.704 46.5762 33.569 46.9033 33.499C47.2305 33.4289 47.5683 33.4252 47.8969 33.4881C54.0375 34.4725 59.3062 36.1381 63.1375 38.3068C68.8094 41.5193 70 45.0787 70 47.4974Z" fill="#F3F4F0"/>
</svg>
