<svg width="70" height="58" viewBox="0 0 70 58" fill="none" xmlns="http://www.w3.org/2000/svg">
<path d="M65 40V35C64.9832 28.8001 63.0533 22.7565 59.4738 17.6944C55.8943 12.6322 50.8397 8.7981 45 6.71563V5C45 3.67392 44.4732 2.40215 43.5355 1.46447C42.5979 0.526784 41.3261 0 40 0H30C28.6739 0 27.4021 0.526784 26.4645 1.46447C25.5268 2.40215 25 3.67392 25 5V6.71563C19.1603 8.7981 14.1057 12.6322 10.5262 17.6944C6.94668 22.7565 5.01679 28.8001 5 35V40C3.67392 40 2.40215 40.5268 1.46447 41.4645C0.526784 42.4021 0 43.6739 0 45V52.5C0 53.8261 0.526784 55.0979 1.46447 56.0355C2.40215 56.9732 3.67392 57.5 5 57.5H65C66.3261 57.5 67.5979 56.9732 68.5355 56.0355C69.4732 55.0979 70 53.8261 70 52.5V45C70 43.6739 69.4732 42.4021 68.5355 41.4645C67.5979 40.5268 66.3261 40 65 40ZM60 35V40H45V12.0844C49.4501 14.0421 53.2363 17.2495 55.899 21.3173C58.5616 25.3851 59.9863 30.1383 60 35ZM40 5V40H30V5H40ZM10 35C10.0137 30.1383 11.4384 25.3851 14.101 21.3173C16.7637 17.2495 20.5499 14.0421 25 12.0844V40H10V35ZM65 52.5H5V45H65V52.5Z" fill="#F3F4F0"/>
</svg>
