<svg width="60" height="60" viewBox="0 0 60 60" fill="none" xmlns="http://www.w3.org/2000/svg">
<path d="M55 0H5C3.67392 0 2.40215 0.526784 1.46447 1.46447C0.526784 2.40215 0 3.67392 0 5V55C0 56.3261 0.526784 57.5979 1.46447 58.5355C2.40215 59.4732 3.67392 60 5 60H55C56.3261 60 57.5979 59.4732 58.5355 58.5355C59.4732 57.5979 60 56.3261 60 55V5C60 3.67392 59.4732 2.40215 58.5355 1.46447C57.5979 0.526784 56.3261 0 55 0ZM5 5H55V29.1812L47.2844 21.4625C46.3468 20.5255 45.0755 19.9992 43.75 19.9992C42.4245 19.9992 41.1532 20.5255 40.2156 21.4625L6.67812 55H5V5ZM55 55H13.75L43.75 25L55 36.25V55ZM20 27.5C21.4834 27.5 22.9334 27.0601 24.1668 26.236C25.4001 25.4119 26.3614 24.2406 26.9291 22.8701C27.4968 21.4997 27.6453 19.9917 27.3559 18.5368C27.0665 17.082 26.3522 15.7456 25.3033 14.6967C24.2544 13.6478 22.918 12.9335 21.4632 12.6441C20.0083 12.3547 18.5003 12.5032 17.1299 13.0709C15.7594 13.6386 14.5881 14.5999 13.764 15.8332C12.9399 17.0666 12.5 18.5166 12.5 20C12.5 21.9891 13.2902 23.8968 14.6967 25.3033C16.1032 26.7098 18.0109 27.5 20 27.5ZM20 17.5C20.4945 17.5 20.9778 17.6466 21.3889 17.9213C21.8 18.196 22.1205 18.5865 22.3097 19.0433C22.4989 19.5001 22.5484 20.0028 22.452 20.4877C22.3555 20.9727 22.1174 21.4181 21.7678 21.7678C21.4181 22.1174 20.9727 22.3555 20.4877 22.452C20.0028 22.5484 19.5001 22.4989 19.0433 22.3097C18.5865 22.1205 18.196 21.8 17.9213 21.3889C17.6466 20.9778 17.5 20.4945 17.5 20C17.5 19.337 17.7634 18.7011 18.2322 18.2322C18.7011 17.7634 19.337 17.5 20 17.5Z" fill="#F3F4F0"/>
</svg>
