<svg width="60" height="63" viewBox="0 0 60 63" fill="none" xmlns="http://www.w3.org/2000/svg">
<path d="M58.5344 26.4633L33.5344 1.46331C32.5968 0.526335 31.3255 0 30 0C28.6745 0 27.4032 0.526335 26.4657 1.46331L1.46566 26.4633C0.999107 26.9264 0.629277 27.4776 0.377667 28.0849C0.126058 28.6922 -0.0023083 29.3435 3.14171e-05 30.0008V60.0008C3.14171e-05 60.6638 0.263424 61.2997 0.732265 61.7686C1.20111 62.2374 1.83699 62.5008 2.50003 62.5008H22.5C23.1631 62.5008 23.799 62.2374 24.2678 61.7686C24.7366 61.2997 25 60.6638 25 60.0008V42.5008H35V60.0008C35 60.6638 35.2634 61.2997 35.7323 61.7686C36.2011 62.2374 36.837 62.5008 37.5 62.5008H57.5C58.1631 62.5008 58.799 62.2374 59.2678 61.7686C59.7366 61.2997 60 60.6638 60 60.0008V30.0008C60.0024 29.3435 59.874 28.6922 59.6224 28.0849C59.3708 27.4776 59.001 26.9264 58.5344 26.4633ZM55 57.5008H40V40.0008C40 39.3378 39.7366 38.7019 39.2678 38.233C38.799 37.7642 38.1631 37.5008 37.5 37.5008H22.5C21.837 37.5008 21.2011 37.7642 20.7323 38.233C20.2634 38.7019 20 39.3378 20 40.0008V57.5008H5.00003V30.0008L30 5.00081L55 30.0008V57.5008Z" fill="#F3F4F0"/>
</svg>
