<svg width="75" height="65" viewBox="0 0 75 65" fill="none" xmlns="http://www.w3.org/2000/svg">
<path d="M72.5 60.0033H67.5V25.0033C67.5 23.6772 66.9732 22.4054 66.0355 21.4677C65.0979 20.53 63.8261 20.0033 62.5 20.0033H42.5V5.00325C42.5006 4.09782 42.2553 3.20923 41.7903 2.43231C41.3254 1.6554 40.6582 1.01932 39.8599 0.591969C39.0617 0.164621 38.1624 -0.0379564 37.258 0.00585897C36.3537 0.0496744 35.4782 0.338238 34.725 0.84075L9.725 17.5033C9.03919 17.9608 8.47716 18.5809 8.08896 19.3082C7.70076 20.0355 7.49844 20.8476 7.5 21.672V60.0033H2.5C1.83696 60.0033 1.20107 60.2666 0.732233 60.7355C0.263392 61.2043 0 61.8402 0 62.5033C0 63.1663 0.263392 63.8022 0.732233 64.271C1.20107 64.7399 1.83696 65.0033 2.5 65.0033H72.5C73.163 65.0033 73.7989 64.7399 74.2678 64.271C74.7366 63.8022 75 63.1663 75 62.5033C75 61.8402 74.7366 61.2043 74.2678 60.7355C73.7989 60.2666 73.163 60.0033 72.5 60.0033ZM62.5 25.0033V60.0033H42.5V25.0033H62.5ZM12.5 21.672L37.5 5.00325V60.0033H12.5V21.672ZM32.5 30.0033V35.0033C32.5 35.6663 32.2366 36.3022 31.7678 36.771C31.2989 37.2399 30.663 37.5033 30 37.5033C29.337 37.5033 28.7011 37.2399 28.2322 36.771C27.7634 36.3022 27.5 35.6663 27.5 35.0033V30.0033C27.5 29.3402 27.7634 28.7043 28.2322 28.2355C28.7011 27.7666 29.337 27.5033 30 27.5033C30.663 27.5033 31.2989 27.7666 31.7678 28.2355C32.2366 28.7043 32.5 29.3402 32.5 30.0033ZM22.5 30.0033V35.0033C22.5 35.6663 22.2366 36.3022 21.7678 36.771C21.2989 37.2399 20.663 37.5033 20 37.5033C19.337 37.5033 18.7011 37.2399 18.2322 36.771C17.7634 36.3022 17.5 35.6663 17.5 35.0033V30.0033C17.5 29.3402 17.7634 28.7043 18.2322 28.2355C18.7011 27.7666 19.337 27.5033 20 27.5033C20.663 27.5033 21.2989 27.7666 21.7678 28.2355C22.2366 28.7043 22.5 29.3402 22.5 30.0033ZM22.5 47.5033V52.5033C22.5 53.1663 22.2366 53.8022 21.7678 54.271C21.2989 54.7399 20.663 55.0033 20 55.0033C19.337 55.0033 18.7011 54.7399 18.2322 54.271C17.7634 53.8022 17.5 53.1663 17.5 52.5033V47.5033C17.5 46.8402 17.7634 46.2043 18.2322 45.7355C18.7011 45.2666 19.337 45.0033 20 45.0033C20.663 45.0033 21.2989 45.2666 21.7678 45.7355C22.2366 46.2043 22.5 46.8402 22.5 47.5033ZM32.5 47.5033V52.5033C32.5 53.1663 32.2366 53.8022 31.7678 54.271C31.2989 54.7399 30.663 55.0033 30 55.0033C29.337 55.0033 28.7011 54.7399 28.2322 54.271C27.7634 53.8022 27.5 53.1663 27.5 52.5033V47.5033C27.5 46.8402 27.7634 46.2043 28.2322 45.7355C28.7011 45.2666 29.337 45.0033 30 45.0033C30.663 45.0033 31.2989 45.2666 31.7678 45.7355C32.2366 46.2043 32.5 46.8402 32.5 47.5033Z" fill="#F3F4F0"/>
</svg>
