<svg width="73" height="68" viewBox="0 0 73 68" fill="none" xmlns="http://www.w3.org/2000/svg">
<path d="M71.0461 29.9997L49.9649 8.77473C44.3347 3.15576 36.7052 0 28.7508 0C20.7964 0 13.167 3.15576 7.53674 8.77473L7.50862 8.80286L3.20549 13.2497C2.75974 13.7288 2.51956 14.3635 2.53654 15.0176C2.55351 15.6718 2.82628 16.2932 3.29628 16.7484C3.76629 17.2037 4.39606 17.4566 5.05041 17.4527C5.70475 17.4489 6.33151 17.1886 6.79612 16.7279L11.0867 12.2966C12.813 10.5707 14.7829 9.10727 16.9336 7.95286L31.4649 22.4997L1.46487 52.4997C1.00046 52.964 0.632056 53.5153 0.380712 54.122C0.129367 54.7287 0 55.379 0 56.0357C0 56.6924 0.129367 57.3427 0.380712 57.9494C0.632056 58.5561 1.00046 59.1073 1.46487 59.5716L7.93049 66.0372C8.3948 66.5016 8.94605 66.87 9.55275 67.1214C10.1595 67.3727 10.8097 67.5021 11.4664 67.5021C12.1231 67.5021 12.7734 67.3727 13.3801 67.1214C13.9868 66.87 14.5381 66.5016 15.0024 66.0372L45.0024 36.0372L49.4836 40.5185L55.0024 46.031C55.4667 46.4954 56.0179 46.8638 56.6246 47.1151C57.2313 47.3665 57.8816 47.4959 58.5383 47.4958C59.195 47.4959 59.8453 47.3665 60.452 47.1151C61.0587 46.8638 61.6099 46.4954 62.0742 46.031L71.0399 37.0654C71.9767 36.1287 72.5036 34.8586 72.5047 33.5338C72.5059 32.2091 71.9813 30.938 71.0461 29.9997ZM11.4649 62.4997L5.00237 56.0341L26.2524 34.7841L32.7149 41.2497L11.4649 62.4997ZM43.2336 30.7247L36.2524 37.7091L29.7867 31.2497L36.7711 24.2654C37.0036 24.0332 37.188 23.7575 37.3138 23.454C37.4396 23.1505 37.5043 22.8251 37.5043 22.4966C37.5043 22.1681 37.4396 21.8428 37.3138 21.5393C37.188 21.2358 37.0036 20.96 36.7711 20.7279L21.9774 5.93723C26.2515 4.73347 30.7692 4.68984 35.0658 5.81081C39.3624 6.93179 43.2829 9.17692 46.4242 12.3154L60.243 26.2247L51.2524 35.206L46.7711 30.7247C46.5389 30.4923 46.2632 30.3079 45.9597 30.1821C45.6562 30.0563 45.3309 29.9915 45.0024 29.9915C44.6738 29.9915 44.3485 30.0563 44.045 30.1821C43.7415 30.3079 43.4658 30.4923 43.2336 30.7247ZM58.5461 42.4935L54.7961 38.7435L63.7524 29.7654L67.5024 33.5154L58.5461 42.4935Z" fill="#F3F4F0"/>
</svg>
