<svg width="20" height="15" viewBox="0 0 20 15" fill="none" xmlns="http://www.w3.org/2000/svg">
<path d="M19.6071 7.35268C19.6071 7.56935 19.5211 7.77715 19.3679 7.93036C19.2146 8.08357 19.0068 8.16964 18.7902 8.16964H0.816964C0.600292 8.16964 0.392494 8.08357 0.239283 7.93036C0.0860729 7.77715 0 7.56935 0 7.35268C0 7.13601 0.0860729 6.92821 0.239283 6.775C0.392494 6.62179 0.600292 6.53571 0.816964 6.53571H18.7902C19.0068 6.53571 19.2146 6.62179 19.3679 6.775C19.5211 6.92821 19.6071 7.13601 19.6071 7.35268ZM0.816964 1.63393H18.7902C19.0068 1.63393 19.2146 1.54786 19.3679 1.39465C19.5211 1.24143 19.6071 1.03364 19.6071 0.816964C19.6071 0.600292 19.5211 0.392494 19.3679 0.239283C19.2146 0.0860729 19.0068 0 18.7902 0H0.816964C0.600292 0 0.392494 0.0860729 0.239283 0.239283C0.0860729 0.392494 0 0.600292 0 0.816964C0 1.03364 0.0860729 1.24143 0.239283 1.39465C0.392494 1.54786 0.600292 1.63393 0.816964 1.63393ZM18.7902 13.0714H0.816964C0.600292 13.0714 0.392494 13.1575 0.239283 13.3107C0.0860729 13.4639 0 13.6717 0 13.8884C0 14.1051 0.0860729 14.3129 0.239283 14.4661C0.392494 14.6193 0.600292 14.7054 0.816964 14.7054H18.7902C19.0068 14.7054 19.2146 14.6193 19.3679 14.4661C19.5211 14.3129 19.6071 14.1051 19.6071 13.8884C19.6071 13.6717 19.5211 13.4639 19.3679 13.3107C19.2146 13.1575 19.0068 13.0714 18.7902 13.0714Z" fill="#F3F4F0"/>
</svg>
